# xmcd
#
# Track frame offsets: 
#        150
#        21095
#        33812
#        46970
#        56839
#        68845
#        81662
#        91865
#        112773
#        135540
#        146442
#
# Disc length: 2149 seconds
#
# Revision: 3
# Processed by: cddbd v1.5.2PL0 Copyright (c) Steve Scherf et al.
# Submitted via: ExactAudioCopy v1.0b1
#
DISCID=8c08630b
DTITLE=David Allan Coe - David Allan Coe At His Best
DYEAR=2002
DGENRE=Country
TTITLE0=You Never Even Called Me By Name (The Perfect Country and Wester
TTITLE0=n  Song)
TTITLE1=Tennessee Whiskey
TTITLE2=How Fast Them Trucks Can Go
TTITLE3=Frankie And Johnny
TTITLE4=18 Wheels Hummin' Home Sweet Home
TTITLE5=From Heavens Door
TTITLE6=Rollin' In My Sweet Baby's Arms
TTITLE7=Powder Brown
TTITLE8=House Of The Rising Sun
TTITLE9=Rings On The Bar
TTITLE10=Prisoner's Song
EXTD=YEAR: 2002
EXTT0=
EXTT1=
EXTT2=
EXTT3=
EXTT4=
EXTT5=
EXTT6=
EXTT7=
EXTT8=
EXTT9=
EXTT10=
PLAYORDER=
